<svg width="16" height="16" viewBox="0 0 16 16" fill="none" xmlns="http://www.w3.org/2000/svg">
<path d="M4 3C3.46957 3 2.96086 3.21071 2.58579 3.58579C2.21071 3.96086 2 4.46957 2 5V5.201L8 8.432L14 5.202V5C14 4.46957 13.7893 3.96086 13.4142 3.58579C13.0391 3.21071 12.5304 3 12 3H4Z" fill="white"/>
<path d="M14 6.33691L8.237 9.43991C8.16416 9.47913 8.08273 9.49965 8 9.49965C7.91727 9.49965 7.83584 9.47913 7.763 9.43991L2 6.33691V10.9999C2 11.5303 2.21071 12.0391 2.58579 12.4141C2.96086 12.7892 3.46957 12.9999 4 12.9999H12C12.5304 12.9999 13.0391 12.7892 13.4142 12.4141C13.7893 12.0391 14 11.5303 14 10.9999V6.33691Z" fill="white"/>
</svg>
