<svg width="69" height="69" viewBox="0 0 69 69" fill="none" xmlns="http://www.w3.org/2000/svg">
<path d="M68.5526 40.4554C69.1384 39.8696 69.1384 38.9199 68.5526 38.3341L59.0067 28.7881C58.4209 28.2023 57.4712 28.2023 56.8854 28.7881C56.2996 29.3739 56.2996 30.3237 56.8854 30.9095L65.3707 39.3947L56.8854 47.88C56.2996 48.4658 56.2996 49.4156 56.8854 50.0013C57.4712 50.5871 58.4209 50.5871 59.0067 50.0013L68.5526 40.4554ZM29.3341 40.8947H67.492V37.8947H29.3341V40.8947Z" fill="#6CD348"/>
<path d="M30.3947 0.939342C29.809 0.353558 28.8592 0.353558 28.2734 0.939343L18.7275 10.4853C18.1417 11.0711 18.1417 12.0208 18.7275 12.6066C19.3133 13.1924 20.263 13.1924 20.8488 12.6066L29.3341 4.12132L37.8194 12.6066C38.4052 13.1924 39.3549 13.1924 39.9407 12.6066C40.5265 12.0208 40.5265 11.0711 39.9407 10.4853L30.3947 0.939342ZM30.8341 40.1579L30.8341 2L27.8341 2L27.8341 40.1579L30.8341 40.1579Z" fill="#4891D3"/>
<path d="M7.5 60C7.5 60.8284 8.17157 61.5 9 61.5L22.5 61.5C23.3284 61.5 24 60.8284 24 60C24 59.1716 23.3284 58.5 22.5 58.5H10.5V46.5C10.5 45.6716 9.82843 45 9 45C8.17157 45 7.5 45.6716 7.5 46.5L7.5 60ZM28.5446 38.3341L7.93934 58.9393L10.0607 61.0607L30.6659 40.4554L28.5446 38.3341Z" fill="#D34848"/>
</svg>
