<svg width="64" height="64" viewBox="0 0 64 64" fill="none" xmlns="http://www.w3.org/2000/svg">
<path d="M3.55556 64C3.55556 64 0 64 0 60.4444V3.55556C0 3.55556 0 0 3.55556 0H60.4996C64 0 64 3.55556 64 3.55556V60.4444C64 60.4444 64 64 60.4444 64H3.55556Z" fill="#31373D"/>
<path d="M33.7778 58.6667C33.7778 58.6667 33.7778 60.4445 35.5555 60.4445H44.4444C46.2222 60.4445 46.2222 58.6667 46.2222 58.6667V8.88892H33.7778V58.6667ZM49.7778 8.88892V58.6667C49.7778 58.6667 49.7778 60.4445 51.5555 60.4445H58.6666C60.4444 60.4445 60.4444 58.6667 60.4444 58.6667V8.88892H49.7778ZM17.7778 58.6667C17.7778 58.6667 17.7778 60.4445 19.5555 60.4445H28.4444C30.2222 60.4445 30.2222 58.6667 30.2222 58.6667V8.88892H17.7778V58.6667ZM3.55554 58.6667C3.55554 58.6667 3.55554 60.4445 5.33332 60.4445H12.4444C14.2222 60.4445 14.2222 58.6667 14.2222 58.6667V8.88892H3.55554V58.6667Z" fill="#E1E8ED"/>
<path d="M53.3333 40.8889C53.3333 40.8889 53.3333 42.6667 51.5556 42.6667H44.4445C42.6667 42.6667 42.6667 40.8889 42.6667 40.8889V5.33337H53.3333V40.8889ZM37.3334 40.8889C37.3334 40.8889 37.3334 42.6667 35.5556 42.6667H28.4445C26.6667 42.6667 26.6667 40.8889 26.6667 40.8889V5.33337H37.3334V40.8889ZM21.3334 40.8889C21.3334 40.8889 21.3334 42.6667 19.5556 42.6667H12.4445C10.6667 42.6667 10.6667 40.8889 10.6667 40.8889V5.33337H21.3334V40.8889Z" fill="#31373D"/>
</svg>
