<svg width="64" height="64" viewBox="0 0 64 64" fill="none" xmlns="http://www.w3.org/2000/svg">
<path d="M30.2222 40.8888C33.1678 40.8888 35.5556 38.501 35.5556 35.5555C35.5556 32.61 33.1678 30.2222 30.2222 30.2222C27.2767 30.2222 24.8889 32.61 24.8889 35.5555C24.8889 38.501 27.2767 40.8888 30.2222 40.8888Z" fill="#9AAAB4"/>
<path d="M34.1955 30.3271C33.9727 30.7422 33.5946 31.0522 33.1439 31.1895C32.6933 31.3267 32.2066 31.28 31.7902 31.0596L9.82932 19.3476C9.41458 19.1244 9.10487 18.7463 8.96767 18.2958C8.83047 17.8452 8.87691 17.3587 9.09687 16.9422L14.1155 7.52891C14.576 6.66669 15.6586 6.3378 16.5209 6.79647L38.4818 18.5085C39.344 18.9689 39.6747 20.0516 39.2142 20.9138L34.1955 30.3271Z" fill="#DA2F47"/>
<path d="M55.4258 39.632C55.2026 40.0472 54.8242 40.3573 54.3732 40.4945C53.9223 40.6317 53.4353 40.585 53.0187 40.3645L35.7654 31.1627C35.3501 30.9395 35.0401 30.5611 34.9029 30.1101C34.7656 29.6591 34.8124 29.1722 35.0329 28.7556L38.3787 22.4818C38.8391 21.6196 39.9218 21.2907 40.7858 21.7493L58.0391 30.9511C58.9014 31.4116 59.232 32.4942 58.7716 33.3582L55.4258 39.632Z" fill="#DA2F47"/>
<path d="M34.1956 30.3253L39.216 20.9155L42.3538 22.5884L37.3316 32L34.1956 30.3253Z" fill="#BB1A34"/>
<path d="M51.4525 39.5289L56.4711 30.1173L62.7467 33.4631L57.7262 42.8746L51.4525 39.5289Z" fill="#9D0522"/>
<path d="M14.7449 13.9093L18.0907 7.63376L16.5245 6.79821V6.79643L8.67916 2.6151C8.263 2.39452 7.77649 2.34756 7.32583 2.48445C6.87517 2.62135 6.49697 2.93099 6.27382 3.34576L1.25516 12.7591C1.03424 13.1754 0.98728 13.6622 1.12456 14.113C1.26184 14.5639 1.57217 14.9419 1.9876 15.1644L8.26138 18.5102L11.4009 20.1831L12.2365 18.6151L14.7449 13.9093ZM40.8889 44.4444C40.8889 45.3874 40.5143 46.2918 39.8475 46.9586C39.1807 47.6254 38.2764 48 37.3334 48H23.1112C22.1682 48 21.2638 47.6254 20.597 46.9586C19.9302 46.2918 19.5556 45.3874 19.5556 44.4444C19.5556 43.5014 19.9302 42.5971 20.597 41.9303C21.2638 41.2635 22.1682 40.8889 23.1112 40.8889H37.3334C38.2764 40.8889 39.1807 41.2635 39.8475 41.9303C40.5143 42.5971 40.8889 43.5014 40.8889 44.4444Z" fill="#292F33"/>
<path d="M16.8302 63.9999L22.7751 51.2853C23.6071 49.5075 22.8391 47.3902 21.0595 46.5599C20.6367 46.3617 20.179 46.2488 19.7125 46.2278C19.246 46.2068 18.7799 46.278 18.3409 46.4373C17.902 46.5967 17.4988 46.8411 17.1545 47.1565C16.8101 47.4719 16.5314 47.8522 16.3342 48.2755L8.98132 63.9999H16.8302ZM43.6124 63.9999H51.4631L44.1084 48.2737C43.9113 47.8504 43.6325 47.4701 43.2882 47.1547C42.9438 46.8393 42.5406 46.5949 42.1017 46.4355C41.6628 46.2762 41.1967 46.205 40.7302 46.226C40.2637 46.2471 39.8059 46.3599 39.3831 46.5582C38.9601 46.7557 38.5802 47.0346 38.265 47.379C37.9498 47.7235 37.7056 48.1266 37.5463 48.5654C37.387 49.0042 37.3157 49.4701 37.3365 49.9365C37.3573 50.4029 37.4698 50.8606 37.6675 51.2835L43.6124 63.9999ZM33.7778 63.9999V49.7777C33.7778 48.8347 33.4032 47.9304 32.7364 47.2636C32.0696 46.5968 31.1652 46.2222 30.2222 46.2222C29.2792 46.2222 28.3749 46.5968 27.7081 47.2636C27.0413 47.9304 26.6667 48.8347 26.6667 49.7777V63.9999H33.7778Z" fill="#9AAAB4"/>
</svg>
