<svg width="64" height="64" viewBox="0 0 64 64" fill="none" xmlns="http://www.w3.org/2000/svg">
<g clip-path="url(#clip0_1:250)">
<path d="M27.5148 37.4027C26.3024 36.5778 27.4544 35.9111 28.2775 34.6969L48.7806 1.344C49.1795 0.760698 49.793 0.358905 50.4871 0.226341C51.1813 0.0937767 51.8997 0.241208 52.4855 0.636449C53.6979 1.46134 54.0179 3.12711 53.193 4.34134L29.7495 35.696C28.9246 36.9102 28.729 38.2276 27.5148 37.4027ZM30.3984 37.3298C29.4135 36.2436 30.6899 35.8649 31.7761 34.88L59.545 7.28178C60.0699 6.80868 60.7606 6.5624 61.4663 6.59671C62.1721 6.63101 62.8357 6.94311 63.3121 7.46489C63.7852 7.98974 64.0315 8.68043 63.9972 9.3862C63.9629 10.092 63.6508 10.7555 63.129 11.232L32.969 36.1956C31.8828 37.1822 31.3832 38.416 30.3984 37.3298Z" fill="#662113"/>
<path d="M28.4445 56.8889H60.4445C62.4 56.8889 64 58.4889 64 60.4445C64 62.4 62.4 64 60.4445 64H28.4445C26.4889 64 24.8889 62.4 24.8889 60.4445C24.8889 58.4889 26.4889 56.8889 28.4445 56.8889Z" fill="#226699"/>
<path d="M28.4444 64C44.1539 64 56.8889 51.265 56.8889 35.5555C56.8889 19.8461 44.1539 7.11108 28.4444 7.11108C12.735 7.11108 0 19.8461 0 35.5555C0 51.265 12.735 64 28.4444 64Z" fill="#226699"/>
<path d="M17.488 52.7804C12.4853 52.7804 9.19999 52.1777 8.95644 52.1315C8.49974 52.0373 8.09835 51.7674 7.83877 51.38C7.57918 50.9927 7.4822 50.5188 7.56871 50.0606C7.65523 49.6024 7.91831 49.1965 8.30127 48.9304C8.68422 48.6644 9.15638 48.5594 9.61599 48.6382C9.7191 48.6595 20.0302 50.5262 31.9804 47.3937C43.9147 44.2649 50.9173 37.6586 50.9867 37.5929C51.3273 37.2668 51.7835 37.0895 52.255 37.0998C52.7264 37.1101 53.1744 37.3073 53.5004 37.648C53.8265 37.9886 54.0038 38.4448 53.9935 38.9163C53.9832 39.3877 53.786 39.8357 53.4453 40.1617C53.1342 40.4586 45.6995 47.4702 32.8835 50.8337C27.0667 52.3573 21.6747 52.7804 17.488 52.7804Z" fill="#55ACEE"/>
<path d="M14.4622 46.5937C8.36083 46.5937 3.89506 45.9182 3.56972 45.8684C3.33895 45.8326 3.11749 45.7516 2.91799 45.6302C2.7185 45.5088 2.54487 45.3493 2.40703 45.1607C2.12864 44.78 2.0129 44.3043 2.08528 43.8382C2.15765 43.3721 2.41221 42.9539 2.79295 42.6755C3.17369 42.3971 3.64943 42.2814 4.1155 42.3537C4.25061 42.3751 17.7919 44.4124 29.7937 41.264C41.7457 38.1315 51.7439 29.0062 51.8435 28.9155C52.1908 28.5993 52.6492 28.4334 53.1184 28.454C53.5877 28.4746 54.0297 28.6801 54.348 29.0256C54.6662 29.3711 54.8348 29.8284 54.8169 30.2978C54.799 30.7672 54.596 31.2104 54.2524 31.5306C53.8204 31.9306 43.4951 41.3493 30.6951 44.7057C25.0862 46.176 19.2675 46.5937 14.4622 46.5937Z" fill="#55ACEE"/>
<path d="M12.793 39.504C7.27482 39.504 3.42771 38.8853 3.14149 38.8391C2.67709 38.762 2.26225 38.5038 1.98797 38.1212C1.71368 37.7386 1.60234 37.2628 1.67838 36.7982C1.71413 36.5669 1.79566 36.345 1.9182 36.1456C2.04074 35.9462 2.20184 35.7732 2.39205 35.6368C2.58226 35.5003 2.79778 35.4032 3.02598 35.3511C3.25418 35.299 3.49048 35.293 3.72105 35.3333C3.84016 35.3529 15.9219 37.2764 27.9042 34.1333C39.8384 31.0044 48.6402 22.6791 48.7255 22.5955C49.0661 22.2695 49.5224 22.0921 49.9938 22.1025C50.4652 22.1128 50.9132 22.31 51.2393 22.6507C51.5653 22.9913 51.7427 23.4475 51.7323 23.919C51.722 24.3904 51.5248 24.8384 51.1842 25.1644C50.8002 25.5324 41.6215 34.2151 28.8055 37.5751C23.0437 39.0809 17.3495 39.504 12.793 39.504Z" fill="#55ACEE"/>
<path d="M13.232 33.0063C12.812 33.0058 12.4057 32.8567 12.0852 32.5853C11.7647 32.3139 11.5506 31.9378 11.4809 31.5236C9.37954 19.0241 14.0622 13.0596 14.2613 12.8125C14.5562 12.4445 14.9853 12.2087 15.454 12.1571C15.9228 12.1054 16.3929 12.242 16.7609 12.537C17.1289 12.8319 17.3647 13.2609 17.4163 13.7297C17.468 14.1984 17.3314 14.6685 17.0364 15.0365C16.96 15.1361 13.184 20.2027 14.9867 30.9334C15.0293 31.1883 15.0158 31.4495 14.9473 31.6987C14.8787 31.9479 14.7567 32.1792 14.5897 32.3765C14.4227 32.5738 14.2147 32.7323 13.9803 32.8411C13.7458 32.9498 13.4905 33.0062 13.232 33.0063ZM20.7502 32.5761C20.314 32.5754 19.8932 32.4143 19.5681 32.1236C19.2429 31.8328 19.0359 31.4326 18.9867 30.9992C17.3333 16.4143 21.7067 10.2454 21.8951 9.98941C22.1742 9.61395 22.5901 9.36365 23.0525 9.29278C23.515 9.22191 23.9867 9.33619 24.3655 9.61083C24.7442 9.88547 24.9994 10.2983 25.0758 10.7599C25.1521 11.2215 25.0435 11.6945 24.7733 12.0765C24.7022 12.1779 21.0489 17.625 22.5191 30.5956C22.5477 30.8448 22.5232 31.0972 22.4474 31.3362C22.3715 31.5753 22.2459 31.7955 22.0788 31.9826C21.9117 32.1696 21.707 32.3192 21.478 32.4215C21.249 32.5238 21.001 32.5765 20.7502 32.5761ZM28.5511 30.5956C28.1182 30.5951 27.7003 30.4366 27.376 30.1498C27.0516 29.8631 26.843 29.4679 26.7893 29.0383C25.2942 17.001 28.7324 10.4676 28.88 10.1956C29.1052 9.78375 29.4843 9.47768 29.9344 9.34422C30.3845 9.21077 30.8691 9.26076 31.2824 9.48329C31.6958 9.70582 32.0044 10.0828 32.1408 10.532C32.2772 10.9812 32.2304 11.4661 32.0107 11.881C31.9484 12.0019 28.9813 17.8507 30.3164 28.601C30.3472 28.8509 30.3244 29.1046 30.2497 29.3451C30.1751 29.5856 30.0501 29.8075 29.8832 29.9961C29.7163 30.1847 29.5112 30.3356 29.2816 30.439C29.0519 30.5424 28.8029 30.5958 28.5511 30.5956ZM36.8124 26.6952C36.3878 26.6949 35.9774 26.5425 35.6555 26.2656C35.3336 25.9887 35.1215 25.6057 35.0578 25.1859C33.7031 16.3165 35.4773 12.0587 35.5538 11.8827C35.7384 11.4492 36.0876 11.1067 36.5247 10.9307C36.9618 10.7547 37.4509 10.7595 37.8844 10.9441C38.318 11.1287 38.6604 11.4779 38.8365 11.915C39.0125 12.3521 39.0077 12.8412 38.8231 13.2747C38.7858 13.3707 37.4009 16.9921 38.5689 24.649C38.6075 24.9021 38.5911 25.1606 38.5206 25.4068C38.4501 25.653 38.3272 25.881 38.1604 26.0753C37.9937 26.2697 37.7869 26.4256 37.5542 26.5326C37.3215 26.6396 37.0685 26.6951 36.8124 26.6952ZM23.328 61.3334C23.0995 61.3337 22.873 61.2896 22.6613 61.2036C20.4693 60.3147 18.4533 58.3201 18.2311 58.0961C17.9082 57.7597 17.7305 57.3099 17.7361 56.8437C17.7417 56.3775 17.9303 55.9321 18.2611 55.6036C18.592 55.2751 19.0387 55.0897 19.5049 55.0873C19.9712 55.085 20.4197 55.266 20.7538 55.5912C21.2213 56.0605 22.7129 57.3885 23.9982 57.9094C24.378 58.0665 24.6917 58.3501 24.886 58.7122C25.0804 59.0743 25.1435 59.4924 25.0645 59.8957C24.9856 60.299 24.7695 60.6626 24.453 60.9246C24.1364 61.1867 23.7389 61.3311 23.328 61.3334ZM33.4667 61.6107C33.1446 61.6109 32.8286 61.523 32.5529 61.3565C30.1262 59.8988 27.0951 56.9245 26.9671 56.8001C26.8006 56.6362 26.6681 56.4411 26.577 56.226C26.486 56.0109 26.4381 55.7799 26.4363 55.5464C26.4345 55.3128 26.4787 55.0811 26.5664 54.8646C26.6542 54.6481 26.7837 54.451 26.9475 54.2845C27.1114 54.1181 27.3065 53.9855 27.5216 53.8945C27.7367 53.8034 27.9677 53.7556 28.2013 53.7538C28.4349 53.7519 28.6665 53.7962 28.883 53.8839C29.0995 53.9716 29.2966 54.1011 29.4631 54.265C29.4915 54.2934 32.3218 57.0685 34.384 58.3076C34.718 58.5076 34.9772 58.8117 35.1216 59.1732C35.2661 59.5347 35.288 59.9336 35.1838 60.3087C35.0796 60.6838 34.8552 61.0143 34.545 61.2496C34.2348 61.4848 33.856 61.6117 33.4667 61.6107ZM41.1644 58.6223C40.8702 58.6225 40.5805 58.5492 40.3218 58.409C38.2898 57.3156 36.1173 54.9779 35.8755 54.7148C35.7174 54.5431 35.5948 54.3419 35.5145 54.1227C35.4343 53.9035 35.3981 53.6707 35.408 53.4375C35.4179 53.2043 35.4737 52.9754 35.5723 52.7638C35.6708 52.5522 35.8101 52.3622 35.9822 52.2045C36.3301 51.8869 36.7895 51.7198 37.2602 51.7398C37.7309 51.7598 38.1745 51.9652 38.4942 52.3112C39.04 52.905 40.7342 54.5939 42.0107 55.2819C42.361 55.4683 42.6388 55.7669 42.7995 56.1298C42.9602 56.4927 42.9946 56.8991 42.8971 57.2838C42.7996 57.6686 42.5759 58.0095 42.2618 58.2522C41.9477 58.4948 41.5613 58.6252 41.1644 58.6223ZM47.2889 53.6588C47.0083 53.6589 46.7317 53.5925 46.4818 53.465C45.408 52.9156 44.192 51.9681 44.0569 51.8632C43.7021 51.5669 43.4767 51.144 43.4285 50.6842C43.3802 50.2245 43.513 49.764 43.7986 49.4005C44.0842 49.037 44.5001 48.799 44.9582 48.737C45.4163 48.6751 45.8805 48.794 46.2524 49.0685C46.5458 49.2979 47.4507 49.9681 48.0995 50.2987C48.4547 50.4807 48.7382 50.7768 48.9047 51.1394C49.0711 51.502 49.1107 51.9101 49.0171 52.2979C48.9236 52.6858 48.7022 53.0309 48.3887 53.2777C48.0753 53.5246 47.6879 53.6588 47.2889 53.6588ZM5.70132 33.3085C5.27169 33.3077 4.85691 33.1513 4.53369 32.8682C4.21046 32.5852 4.00066 32.1947 3.94309 31.769C3.30843 27.0899 4.55465 22.6507 5.54665 20.8072C5.78062 20.4114 6.15869 20.1215 6.60164 19.9983C7.04459 19.8751 7.51804 19.9281 7.92278 20.1462C8.32752 20.3643 8.63213 20.7306 8.77279 21.1683C8.91345 21.6061 8.87924 22.0812 8.67732 22.4943C8.04976 23.657 6.92976 27.337 7.46665 31.2907C7.50095 31.5425 7.48089 31.7986 7.40784 32.042C7.33478 32.2853 7.21042 32.5101 7.04314 32.7013C6.87585 32.8926 6.66952 33.0457 6.43806 33.1504C6.2066 33.2552 5.95537 33.3091 5.70132 33.3085ZM44.1582 23.4294C43.7447 23.4292 43.3443 23.2847 43.0259 23.0209C42.7075 22.757 42.4912 22.3903 42.4142 21.9841C41.9182 19.3707 42.2151 16.3876 42.7644 14.7894C42.8368 14.5643 42.9533 14.3559 43.1072 14.1763C43.2611 13.9968 43.4493 13.8498 43.6607 13.7439C43.8722 13.6379 44.1026 13.5753 44.3386 13.5595C44.5745 13.5438 44.8112 13.5753 45.0348 13.6521C45.2585 13.729 45.4645 13.8497 45.6409 14.0072C45.8173 14.1647 45.9605 14.3558 46.0622 14.5693C46.1638 14.7828 46.2218 15.0145 46.2328 15.2507C46.2438 15.4869 46.2076 15.7229 46.1262 15.945C45.7938 16.9085 45.5075 19.2143 45.9075 21.3192C45.9565 21.5765 45.9481 21.8414 45.8827 22.095C45.8174 22.3486 45.6969 22.5846 45.5298 22.7862C45.3627 22.9878 45.153 23.15 44.9159 23.2612C44.6788 23.3724 44.4201 23.4298 44.1582 23.4294Z" fill="#55ACEE"/>
</g>
<defs>
<clipPath id="clip0_1:250">
<rect width="64" height="64" fill="white"/>
</clipPath>
</defs>
</svg>
